REM DIRINDEX 1\2,1\3,1\4,1\5
REM DIRNAME cjc004,folder01,folder02,folder03,folder04
TITLE ""
FILE "1Q_t_0612-0621.mp3" MP3
  TRACK 01 AUDIO
    TITLE "3:cjc004_2738"
    INDEX 01 00:00:00
  TRACK 02 AUDIO
    TITLE "0:"
    INDEX 01 00:00:70
  TRACK 03 AUDIO
    TITLE "4:cjc004_2739"
    INDEX 01 00:01:22
  TRACK 04 AUDIO
    TITLE "0:"
    INDEX 01 00:02:36
  TRACK 05 AUDIO
    TITLE "5:cjc004_2740"
    INDEX 01 00:02:59
  TRACK 06 AUDIO
    TITLE "0:"
    INDEX 01 00:07:27
  TRACK 07 AUDIO
    TITLE "3:cjc004_2741"
    INDEX 01 00:08:05
  TRACK 08 AUDIO
    TITLE "0:"
    INDEX 01 00:09:20
  TRACK 09 AUDIO
    TITLE "4:cjc004_2742"
    INDEX 01 00:09:49
  TRACK 10 AUDIO
    TITLE "0:"
    INDEX 01 00:10:68
  TRACK 11 AUDIO
    TITLE "5:cjc004_2743"
    INDEX 01 00:11:25
  TRACK 12 AUDIO
    TITLE "0:"
    INDEX 01 00:16:28
  TRACK 13 AUDIO
    TITLE "3:cjc004_2744"
    INDEX 01 00:17:12
  TRACK 14 AUDIO
    TITLE "0:"
    INDEX 01 00:18:27
  TRACK 15 AUDIO
    TITLE "4:cjc004_2745"
    INDEX 01 00:18:58
  TRACK 16 AUDIO
    TITLE "0:"
    INDEX 01 00:20:04
  TRACK 17 AUDIO
    TITLE "5:cjc004_2746"
    INDEX 01 00:20:30
  TRACK 18 AUDIO
    TITLE "0:"
    INDEX 01 00:24:37
  TRACK 19 AUDIO
    TITLE "3:cjc004_2747"
    INDEX 01 00:25:17
  TRACK 20 AUDIO
    TITLE "0:"
    INDEX 01 00:26:44
  TRACK 21 AUDIO
    TITLE "4:cjc004_2748"
    INDEX 01 00:26:73
  TRACK 22 AUDIO
    TITLE "0:"
    INDEX 01 00:28:23
  TRACK 23 AUDIO
    TITLE "5:cjc004_2749"
    INDEX 01 00:28:41
  TRACK 24 AUDIO
    TITLE "0:"
    INDEX 01 00:32:70
  TRACK 25 AUDIO
    TITLE "3:cjc004_2750"
    INDEX 01 00:33:46
  TRACK 26 AUDIO
    TITLE "0:"
    INDEX 01 00:34:63
  TRACK 27 AUDIO
    TITLE "4:cjc004_2751"
    INDEX 01 00:35:10
  TRACK 28 AUDIO
    TITLE "0:"
    INDEX 01 00:36:36
  TRACK 29 AUDIO
    TITLE "5:cjc004_2752"
    INDEX 01 00:36:64
  TRACK 30 AUDIO
    TITLE "0:"
    INDEX 01 00:41:20
  TRACK 31 AUDIO
    TITLE "3:cjc004_2753"
    INDEX 01 00:41:73
  TRACK 32 AUDIO
    TITLE "0:"
    INDEX 01 00:43:13
  TRACK 33 AUDIO
    TITLE "4:cjc004_2754"
    INDEX 01 00:43:42
  TRACK 34 AUDIO
    TITLE "0:"
    INDEX 01 00:44:71
  TRACK 35 AUDIO
    TITLE "5:cjc004_2755"
    INDEX 01 00:45:20
  TRACK 36 AUDIO
    TITLE "0:"
    INDEX 01 00:50:05
  TRACK 37 AUDIO
    TITLE "3:cjc004_2756"
    INDEX 01 00:50:56
  TRACK 38 AUDIO
    TITLE "0:"
    INDEX 01 00:51:58
  TRACK 39 AUDIO
    TITLE "4:cjc004_2757"
    INDEX 01 00:52:12
  TRACK 40 AUDIO
    TITLE "0:"
    INDEX 01 00:53:23
  TRACK 41 AUDIO
    TITLE "5:cjc004_2758"
    INDEX 01 00:53:47
  TRACK 42 AUDIO
    TITLE "0:"
    INDEX 01 00:58:44
  TRACK 43 AUDIO
    TITLE "3:cjc004_2759"
    INDEX 01 00:59:26
  TRACK 44 AUDIO
    TITLE "0:"
    INDEX 01 01:00:23
  TRACK 45 AUDIO
    TITLE "4:cjc004_2760"
    INDEX 01 01:00:55
  TRACK 46 AUDIO
    TITLE "0:"
    INDEX 01 01:01:66
  TRACK 47 AUDIO
    TITLE "5:cjc004_2761"
    INDEX 01 01:02:14
  TRACK 48 AUDIO
    TITLE "0:"
    INDEX 01 01:06:20
  TRACK 49 AUDIO
    TITLE "3:cjc004_2762"
    INDEX 01 01:06:71
  TRACK 50 AUDIO
    TITLE "0:"
    INDEX 01 01:07:70
  TRACK 51 AUDIO
    TITLE "4:cjc004_2763"
    INDEX 01 01:08:23
  TRACK 52 AUDIO
    TITLE "0:"
    INDEX 01 01:10:18
  TRACK 53 AUDIO
    TITLE "5:cjc004_2764"
    INDEX 01 01:10:45
  TRACK 54 AUDIO
    TITLE "0:"
    INDEX 01 01:17:02
  TRACK 55 AUDIO
    TITLE "3:cjc004_2765"
    INDEX 01 01:17:57
  TRACK 56 AUDIO
    TITLE "0:"
    INDEX 01 01:18:56
  TRACK 57 AUDIO
    TITLE "4:cjc004_2766"
    INDEX 01 01:19:11
  TRACK 58 AUDIO
    TITLE "0:"
    INDEX 01 01:20:26
  TRACK 59 AUDIO
    TITLE "5:cjc004_2767"
    INDEX 01 01:20:57
  TRACK 60 AUDIO
    TITLE "0:"
    INDEX 01 01:25:51
